<?xml version="1.0" encoding="utf-8"?>
<svg version="1.1" xmlns:xlink="http://www.w3.org/1999/xlink" width="20px" height="23px" xmlns="http://www.w3.org/2000/svg">
  <g transform="matrix(1 0 0 1 -64 0 )">
    <path d="M 15.0520833333333 0.872767857142858  L 19.1145833333333 4.87723214285714  C 19.3576388888889 5.11681547619047  19.5659722222222 5.44196428571429  19.7395833333333 5.85267857142857  C 19.9131944444444 6.26339285714286  20 6.63988095238095  20 6.98214285714286  L 20 21.7678571428571  C 20 22.110119047619  19.8784722222222 22.4010416666667  19.6354166666667 22.640625  C 19.3923611111111 22.8802083333333  19.0972222222222 23  18.75 23  L 1.25 23  C 0.902777777777778 23  0.607638888888889 22.8802083333333  0.364583333333333 22.640625  C 0.121527777777778 22.4010416666667  0 22.110119047619  0 21.7678571428571  L 0 1.23214285714286  C 0 0.889880952380952  0.121527777777778 0.598958333333332  0.364583333333333 0.359375  C 0.607638888888889 0.119791666666668  0.902777777777778 0  1.25 0  L 12.9166666666667 0  C 13.2638888888889 0  13.6458333333333 0.0855654761904772  14.0625 0.256696428571429  C 14.4791666666667 0.427827380952381  14.8090277777778 0.633184523809523  15.0520833333333 0.872767857142858  Z M 13.8671875 2.02790178571429  C 13.7630208333333 1.92522321428571  13.5850694444444 1.83110119047619  13.3333333333333 1.74553571428571  L 13.3333333333333 6.57142857142857  L 18.2291666666667 6.57142857142857  C 18.1423611111111 6.32328869047619  18.046875 6.14787946428571  17.9427083333333 6.04520089285714  L 13.8671875 2.02790178571429  Z M 2 21  L 18 21  L 18 8.21428571428571  L 12.9166666666667 8.21428571428571  C 12.5694444444444 8.21428571428571  12.2743055555556 8.09449404761905  12.03125 7.85491071428571  C 11.7881944444444 7.61532738095238  11.6666666666667 7.32440476190476  11.6666666666667 6.98214285714286  L 11.6666666666667 2  L 2 2  L 2 21  Z M 6.47135416666667 18.3537946428571  L 5.5859375 18.3537946428571  L 5.5859375 19.7142857142857  L 9.24479166666667 19.7142857142857  L 9.24479166666667 18.3537946428571  L 8.26822916666667 18.3537946428571  L 9.609375 16.2873883928571  C 9.65277777777778 16.2274925595238  9.69618055555556 16.1569010416667  9.73958333333333 16.0756138392857  C 9.78298611111111 15.9943266369048  9.81553819444444 15.9365699404762  9.83723958333333 15.90234375  C 9.85894097222222 15.8681175595238  9.87413194444444 15.8510044642857  9.8828125 15.8510044642857  L 9.90885416666667 15.8510044642857  C 9.91753472222222 15.8852306547619  9.93923611111111 15.9280133928571  9.97395833333333 15.9793526785714  C 9.99131944444444 16.0135788690476  10.0108506944444 16.045665922619  10.0325520833333 16.0756138392857  C 10.0542534722222 16.1055617559524  10.0802951388889 16.1397879464286  10.1106770833333 16.1782924107143  C 10.1410590277778 16.216796875  10.1692708333333 16.253162202381  10.1953125 16.2873883928571  L 11.5885416666667 18.3537946428571  L 10.5989583333333 18.3537946428571  L 10.5989583333333 19.7142857142857  L 14.3880208333333 19.7142857142857  L 14.3880208333333 18.3537946428571  L 13.5026041666667 18.3537946428571  L 11.0026041666667 14.8498883928571  L 13.5416666666667 11.23046875  L 14.4140625 11.23046875  L 14.4140625 9.85714285714286  L 10.78125 9.85714285714286  L 10.78125 11.23046875  L 11.7447916666667 11.23046875  L 10.4036458333333 13.2712053571429  C 10.3689236111111 13.3311011904762  10.3255208333333 13.4016927083333  10.2734375 13.4829799107143  C 10.2213541666667 13.5642671130952  10.1822916666667 13.6220238095238  10.15625 13.65625  L 10.1302083333333 13.6947544642857  L 10.1041666666667 13.6947544642857  C 10.0954861111111 13.6605282738095  10.0737847222222 13.6177455357143  10.0390625 13.56640625  C 9.98697916666667 13.4722842261905  9.91319444444444 13.3738839285714  9.81770833333333 13.2712053571429  L 8.4375 11.23046875  L 9.42708333333333 11.23046875  L 9.42708333333333 9.85714285714286  L 5.65104166666667 9.85714285714286  L 5.65104166666667 11.23046875  L 6.53645833333333 11.23046875  L 8.99739583333333 14.7215401785714  L 6.47135416666667 18.3537946428571  Z " fill-rule="nonzero" fill="#70b603" stroke="none" transform="matrix(1 0 0 1 64 0 )" />
  </g>
</svg>