<svg width="30" height="25" viewBox="0 0 30 25" fill="none" xmlns="http://www.w3.org/2000/svg">
<path d="M22.3097 2.98338C24.4526 2.98338 26.1749 4.60725 26.1749 6.62765C26.1749 8.64804 24.4526 10.2719 22.3097 10.2719C20.1669 10.2719 18.4446 8.64804 18.4446 6.62765C18.4246 4.60725 20.1669 2.98338 22.3097 2.98338ZM10.2937 0C12.8972 0 15.02 2.00151 15.02 4.45619C15.02 6.91087 12.8972 8.91238 10.2937 8.91238C7.69025 8.91238 5.56742 6.91087 5.56742 4.45619C5.56742 1.98263 7.67023 0 10.2937 0ZM10.2937 17.2394V24.3202C5.48732 22.9041 1.68224 19.4109 0 14.9547C2.1028 12.8399 7.3498 11.7636 10.2937 11.7636C11.3551 11.7636 12.6969 11.9146 14.0988 12.179C10.8144 13.8217 10.2937 15.9932 10.2937 17.2394ZM15.0801 25C14.5394 25 14.0187 24.9811 13.498 24.9245V17.2394C13.498 14.5582 19.3858 13.2175 22.3097 13.2175C24.4526 13.2175 28.1575 13.9539 30 15.389C27.6569 20.997 21.8692 25 15.0801 25Z" fill="#1F59BC" fill-opacity="0.8"/>
</svg>
