<?xml version="1.0" encoding="utf-8"?>
<svg version="1.1" xmlns:xlink="http://www.w3.org/1999/xlink" width="16px" height="16px" xmlns="http://www.w3.org/2000/svg">
  <g transform="matrix(1 0 0 1 -5 -5 )">
    <path d="M 16 8  C 16 3.58332258064516  12.4179677419355 0  8 0  C 3.58203225806452 0  0 3.58332258064516  0 8  C 0 12.4192580645161  3.58203225806452 16  8 16  C 12.4179677419355 16  16 12.4192580645161  16 8  Z M 6.64516129032258 4.90322580645161  C 6.64516129032258 4.15496774193548  7.25174193548387 3.54838709677419  8 3.54838709677419  C 8.74825806451613 3.54838709677419  9.35483870967742 4.15496774193548  9.35483870967742 4.90322580645161  C 9.35483870967742 5.65148387096774  8.74825806451613 6.25806451612903  8 6.25806451612903  C 7.25174193548387 6.25806451612903  6.64516129032258 5.65148387096774  6.64516129032258 4.90322580645161  Z M 9.80645161290323 10.9677419354839  L 9.80645161290323 11.741935483871  C 9.80645161290323 11.9557096774194  9.63312903225806 12.1290322580645  9.41935483870968 12.1290322580645  L 6.58064516129032 12.1290322580645  C 6.36687096774194 12.1290322580645  6.19354838709677 11.9557096774194  6.19354838709677 11.741935483871  L 6.19354838709677 10.9677419354839  C 6.19354838709677 10.7539677419355  6.36687096774194 10.5806451612903  6.58064516129032 10.5806451612903  L 6.96774193548387 10.5806451612903  L 6.96774193548387 8.51612903225806  L 6.58064516129032 8.51612903225806  C 6.36687096774194 8.51612903225806  6.19354838709677 8.3428064516129  6.19354838709677 8.12903225806452  L 6.19354838709677 7.35483870967742  C 6.19354838709677 7.14106451612903  6.36687096774194 6.96774193548387  6.58064516129032 6.96774193548387  L 8.64516129032258 6.96774193548387  C 8.85893548387097 6.96774193548387  9.03225806451613 7.14106451612903  9.03225806451613 7.35483870967742  L 9.03225806451613 10.5806451612903  L 9.41935483870968 10.5806451612903  C 9.63312903225806 10.5806451612903  9.80645161290323 10.7539677419355  9.80645161290323 10.9677419354839  Z " fill-rule="nonzero" fill="#02a7f0" stroke="none" transform="matrix(1 0 0 1 5 5 )" />
  </g>
</svg>