<?xml version="1.0" encoding="utf-8"?>
<svg version="1.1" xmlns:xlink="http://www.w3.org/1999/xlink" width="20px" height="23px" xmlns="http://www.w3.org/2000/svg">
  <g>
    <path d="M 15.0520833333333 0.872767857142858  L 19.1145833333333 4.87723214285714  C 19.3576388888889 5.11681547619047  19.5659722222222 5.44196428571429  19.7395833333333 5.85267857142857  C 19.9131944444444 6.26339285714286  20 6.63988095238095  20 6.98214285714286  L 20 21.7678571428571  C 20 22.110119047619  19.8784722222222 22.4010416666667  19.6354166666667 22.640625  C 19.3923611111111 22.8802083333333  19.0972222222222 23  18.75 23  L 1.25 23  C 0.902777777777778 23  0.607638888888889 22.8802083333333  0.364583333333333 22.640625  C 0.121527777777778 22.4010416666667  0 22.110119047619  0 21.7678571428571  L 0 1.23214285714286  C 0 0.889880952380952  0.121527777777778 0.598958333333332  0.364583333333333 0.359375  C 0.607638888888889 0.119791666666668  0.902777777777778 0  1.25 0  L 12.9166666666667 0  C 13.2638888888889 0  13.6458333333333 0.0855654761904772  14.0625 0.256696428571429  C 14.4791666666667 0.427827380952381  14.8090277777778 0.633184523809523  15.0520833333333 0.872767857142858  Z M 13.8671875 2.02790178571429  C 13.7630208333333 1.92522321428571  13.5850694444444 1.83110119047619  13.3333333333333 1.74553571428571  L 13.3333333333333 6.57142857142857  L 18.2291666666667 6.57142857142857  C 18.1423611111111 6.32328869047619  18.046875 6.14787946428571  17.9427083333333 6.04520089285714  L 13.8671875 2.02790178571429  Z M 2 21  L 18 21  L 18 8.21428571428571  L 12.9166666666667 8.21428571428571  C 12.5694444444444 8.21428571428571  12.2743055555556 8.09449404761905  12.03125 7.85491071428571  C 11.7881944444444 7.61532738095238  11.6666666666667 7.32440476190476  11.6666666666667 6.98214285714286  L 11.6666666666667 2  L 2 2  L 2 21  Z M 6.94010416666667 9.85714285714286  L 3.03385416666667 9.85714285714286  L 3.03385416666667 11.23046875  L 3.9453125 11.23046875  L 6.08072916666667 19.7142857142857  L 8.15104166666667 19.7142857142857  L 9.81770833333333 13.4893973214286  C 9.87847222222222 13.3182663690476  9.921875 13.1214657738095  9.94791666666667 12.8989955357143  C 9.96527777777778 12.7620907738095  9.97395833333333 12.659412202381  9.97395833333333 12.5909598214286  L 10.0260416666667 12.5909598214286  L 10.0651041666667 12.8989955357143  C 10.0737847222222 12.9246651785714  10.0889756944444 13.0102306547619  10.1106770833333 13.1556919642857  C 10.1323784722222 13.3011532738095  10.15625 13.4123883928571  10.1822916666667 13.4893973214286  L 11.8489583333333 19.7142857142857  L 13.9192708333333 19.7142857142857  L 16.0546875 11.23046875  L 16.9661458333333 11.23046875  L 16.9661458333333 9.85714285714286  L 13.0598958333333 9.85714285714286  L 13.0598958333333 11.23046875  L 14.2317708333333 11.23046875  L 12.9427083333333 16.8521205357143  C 12.8993055555556 17.0232514880952  12.8689236111111 17.2200520833333  12.8515625 17.4425223214286  L 12.8255208333333 17.7120535714286  L 12.7734375 17.7120535714286  C 12.7734375 17.6863839285714  12.7712673611111 17.6585751488095  12.7669270833333 17.6286272321429  C 12.7625868055556 17.5986793154762  12.7560763888889 17.564453125  12.7473958333333 17.5259486607143  C 12.7387152777778 17.4874441964286  12.734375 17.4596354166667  12.734375 17.4425223214286  C 12.7256944444444 17.3997395833333  12.7083333333333 17.3098958333333  12.6822916666667 17.1729910714286  C 12.65625 17.0360863095238  12.6345486111111 16.9291294642857  12.6171875 16.8521205357143  L 10.7421875 9.85714285714286  L 9.2578125 9.85714285714286  L 7.3828125 16.8521205357143  C 7.36545138888889 16.9291294642857  7.34592013888889 17.033947172619  7.32421875 17.1665736607143  C 7.30251736111111 17.2992001488095  7.28732638888889 17.3911830357143  7.27864583333333 17.4425223214286  L 7.2265625 17.7120535714286  L 7.17447916666667 17.7120535714286  L 7.1484375 17.4425223214286  C 7.13107638888889 17.2200520833333  7.10069444444445 17.0232514880952  7.05729166666667 16.8521205357143  L 5.76822916666667 11.23046875  L 6.94010416666667 11.23046875  L 6.94010416666667 9.85714285714286  Z " fill-rule="nonzero" fill="#02a7f0" stroke="none" />
  </g>
</svg>